<?xml version="1.0" encoding="UTF-8"?>
<!DOCTYPE svg PUBLIC "-//W3C//DTD SVG 1.1//EN" "http://www.w3.org/Graphics/SVG/1.1/DTD/svg11.dtd">
<svg version="1.1" xmlns="http://www.w3.org/2000/svg" xmlns:xlink="http://www.w3.org/1999/xlink" x="0" y="0" width="440" height="440" viewBox="0, 0, 440, 440">
  <g id="_1_-_TITLE" opacity="0.898">
    <g>
      <g id="FRAME">
        <path d="M32,110.313 L32,329.725 L222,439.393 L412,329.725 L412,110.313 L222,0.607 L32,110.313 z" fill="#FFFFFF" id="FRAME-2"/>
        <path d="M112.066,355.185 C108.846,353.058 106.818,349.537 106.594,345.685 L106.594,306.393 C106.594,302.935 109.064,301.491 112.066,303.239 L261.292,389.613 C262.658,390.068 263.58,391.346 263.58,392.786 C263.58,394.226 262.658,395.504 261.292,395.959 L227.51,415.491 C224.062,417.201 220.014,417.201 216.566,415.491 z" fill="#DDDDDD" opacity="0.896"/>
        <path d="M48.91,191.785 C49.128,187.931 51.158,184.407 54.382,182.285 L88.582,162.449 C91.584,160.739 94.054,162.145 94.054,165.641 L93.674,338.199 C93.674,341.695 91.166,343.101 88.164,341.353 L54.382,321.859 C51.144,319.75 49.11,316.219 48.91,312.359 z" fill="#DDDDDD" opacity="0.903"/>
        <path d="M159.49,54.947 C162.942,53.2 167.02,53.2 170.472,54.947 L204.9,74.821 C206.238,75.292 207.133,76.556 207.133,77.975 C207.133,79.394 206.238,80.658 204.9,81.129 L54.382,167.655 C51.342,169.365 48.872,167.959 48.872,164.463 L48.872,125.019 C49.087,121.154 51.134,117.624 54.382,115.519 z" fill="#DDDDDD" opacity="0.897"/>
        <path d="M331.934,82.307 C335.154,84.434 337.182,87.955 337.406,91.807 L337.406,131.327 C337.406,134.785 334.936,136.229 331.934,134.481 L182.708,47.879 C181.342,47.424 180.42,46.146 180.42,44.706 C180.42,43.266 181.342,41.988 182.708,41.533 L216.49,22.039 C219.929,20.292 223.995,20.292 227.434,22.039 z" fill="#DDDDDD" opacity="0.896"/>
        <path d="M395.128,245.707 C394.913,249.572 392.866,253.102 389.618,255.207 L355.722,274.777 C352.72,276.525 350.25,275.119 350.25,271.623 L350.25,99.293 C350.25,95.835 352.72,94.391 355.722,96.139 L389.504,115.633 C392.752,117.738 394.799,121.268 395.014,125.133 z" fill="#DDDDDD" opacity="0.898"/>
        <path d="M284.51,382.545 C281.058,384.292 276.98,384.292 273.528,382.545 L239.746,363.051 C238.38,362.596 237.458,361.318 237.458,359.878 C237.458,358.438 238.38,357.16 239.746,356.705 L389.618,269.875 C392.658,268.127 395.09,269.533 395.09,273.029 L395.09,312.359 C394.872,316.213 392.842,319.737 389.618,321.859 z" fill="#DDDDDD" opacity="0.9"/>
      </g>
      <g id="BTC">
        <path d="M127.418,139.231 C115.151,147.27 107.424,160.65 106.594,175.293 L106.594,260.451 C107.424,275.094 115.151,288.474 127.418,296.513 L201.176,339.111 C214.313,345.773 229.839,345.773 242.976,339.111 L316.582,296.513 C328.839,288.47 336.552,275.088 337.368,260.451 L337.368,175.293 C336.552,160.656 328.839,147.274 316.582,139.231 L242.824,96.671 C229.687,90.009 214.161,90.009 201.024,96.671 z" fill="#DDDDDD"/>
        <path d="M280.634,201.019 C283.294,183.349 269.804,173.811 251.374,167.465 L257.378,143.487 L242.786,139.687 L236.972,163.057 C233.172,162.107 229.372,161.195 225.268,160.283 L231.12,136.799 L216.528,132.999 L210.6,157.319 C207.408,156.597 204.292,155.875 201.29,155.115 L201.29,155.115 L181.15,150.099 L177.35,165.679 C177.35,165.679 188.18,168.187 187.952,168.339 C189.987,168.539 191.856,169.551 193.136,171.145 C194.416,172.74 194.999,174.783 194.754,176.813 L187.8,204.059 C188.316,204.194 188.823,204.359 189.32,204.553 L187.762,204.173 L178.262,242.439 C177.835,243.785 176.889,244.906 175.635,245.555 C174.38,246.203 172.919,246.326 171.574,245.897 C170.229,245.468 160.972,243.237 160.972,243.237 L153.6,259.957 L172.6,264.669 L183.012,267.367 L176.97,291.611 L191.562,295.411 L197.528,271.395 C201.328,272.497 205.394,273.485 209.156,274.435 L203.19,298.299 L217.782,302.099 L223.824,277.893 C248.828,282.301 267.6,280.401 275.428,258.019 C281.774,239.893 275.124,229.443 262.014,222.603 C271.4,220.285 278.734,214.015 280.634,201.019 z M247.308,247.835 C242.786,265.961 212.272,256.157 202.392,253.687 L210.6,221.577 C220.29,224.047 252.02,228.911 247.308,247.835 z M251.83,200.791 C247.688,217.283 222.304,208.923 214.058,206.871 L221.316,177.725 C229.6,179.777 256.2,183.615 251.83,200.791 z" fill="#FFFFFF" id="BITCOIN"/>
      </g>
    </g>
  </g>
</svg>
