<?xml version="1.0" encoding="UTF-8"?>
<!DOCTYPE svg PUBLIC "-//W3C//DTD SVG 1.1//EN" "http://www.w3.org/Graphics/SVG/1.1/DTD/svg11.dtd">
<svg version="1.1" xmlns="http://www.w3.org/2000/svg" xmlns:xlink="http://www.w3.org/1999/xlink" x="0" y="0" width="400" height="66" viewBox="0, 0, 400, 66">
  <g id="_1_-_TITLE">
    <g>
      <g>
        <g id="FRAME">
          <path d="M0,16.704 L0,49.302 L28.228,65.595 L56.456,49.302 L56.456,16.704 L28.228,0.405 L0,16.704 z" fill="#010101" id="FRAME-2"/>
          <path d="M11.895,53.084 C11.417,52.768 11.115,52.245 11.082,51.673 L11.082,45.835 C11.082,45.321 11.449,45.107 11.895,45.367 L34.065,58.199 C34.268,58.266 34.405,58.456 34.405,58.67 C34.405,58.884 34.268,59.074 34.065,59.142 L29.046,62.044 C28.534,62.298 27.933,62.298 27.42,62.044 z" fill="#FFFFFF"/>
          <path d="M2.512,28.808 C2.545,28.236 2.846,27.712 3.325,27.397 L8.406,24.45 C8.852,24.196 9.219,24.405 9.219,24.924 L9.163,50.56 C9.163,51.08 8.79,51.289 8.344,51.029 L3.325,48.133 C2.844,47.819 2.542,47.295 2.512,46.722 z" fill="#FFFFFF"/>
          <path d="M18.941,8.479 C19.454,8.219 20.06,8.219 20.572,8.479 L25.687,11.431 C25.886,11.501 26.019,11.689 26.019,11.9 C26.019,12.11 25.886,12.298 25.687,12.368 L3.325,25.223 C2.874,25.477 2.507,25.268 2.507,24.749 L2.507,18.889 C2.539,18.315 2.843,17.79 3.325,17.478 z" fill="#FFFFFF"/>
          <path d="M44.56,12.543 C45.039,12.859 45.34,13.382 45.373,13.955 L45.373,19.826 C45.373,20.34 45.006,20.554 44.56,20.295 L22.39,7.428 C22.187,7.361 22.05,7.171 22.05,6.957 C22.05,6.743 22.187,6.553 22.39,6.486 L27.409,3.59 C27.92,3.33 28.524,3.33 29.035,3.59 z" fill="#FFFFFF"/>
          <path d="M53.949,36.819 C53.917,37.393 53.613,37.918 53.13,38.231 L48.094,41.138 C47.648,41.398 47.281,41.189 47.281,40.669 L47.281,15.067 C47.281,14.553 47.648,14.339 48.094,14.598 L53.113,17.494 C53.596,17.807 53.9,18.332 53.932,18.906 z" fill="#FFFFFF"/>
          <path d="M37.515,57.149 C37.002,57.408 36.396,57.408 35.883,57.149 L30.864,54.253 C30.661,54.185 30.524,53.995 30.524,53.781 C30.524,53.567 30.661,53.377 30.864,53.31 L53.13,40.41 C53.582,40.15 53.943,40.359 53.943,40.878 L53.943,46.722 C53.911,47.294 53.609,47.818 53.13,48.133 z" fill="#FFFFFF"/>
        </g>
        <g id="BTC">
          <path d="M14.176,21 C12.354,22.195 11.206,24.183 11.082,26.358 L11.082,39.01 C11.206,41.185 12.354,43.173 14.176,44.367 L25.134,50.696 C27.086,51.686 29.392,51.686 31.344,50.696 L42.28,44.367 C44.101,43.172 45.246,41.184 45.368,39.01 L45.368,26.358 C45.246,24.183 44.101,22.195 42.28,21 L31.322,14.677 C29.37,13.688 27.063,13.688 25.111,14.677 z" fill="#DF9031"/>
          <path d="M36.939,30.18 C37.334,27.555 35.33,26.138 32.592,25.195 L33.484,21.633 L31.316,21.068 L30.452,24.54 C29.888,24.399 29.323,24.264 28.713,24.128 L29.583,20.639 L27.415,20.075 L26.534,23.688 C26.06,23.58 25.597,23.473 25.151,23.36 L25.151,23.36 L22.159,22.615 L21.594,24.93 C21.594,24.93 23.203,25.302 23.169,25.325 C23.472,25.355 23.749,25.505 23.939,25.742 C24.13,25.979 24.216,26.282 24.18,26.584 L23.147,30.632 C23.223,30.652 23.299,30.676 23.373,30.705 L23.141,30.649 L21.73,36.334 C21.666,36.534 21.526,36.7 21.339,36.797 C21.153,36.893 20.936,36.911 20.736,36.847 C20.536,36.784 19.161,36.452 19.161,36.452 L18.066,38.936 L20.889,39.636 L22.435,40.037 L21.538,43.639 L23.706,44.204 L24.592,40.636 C25.157,40.799 25.761,40.946 26.32,41.087 L25.433,44.633 L27.601,45.197 L28.499,41.601 C32.214,42.256 35.002,41.974 36.165,38.648 C37.108,35.955 36.12,34.403 34.173,33.387 C35.567,33.042 36.657,32.111 36.939,30.18 z M31.988,37.135 C31.316,39.828 26.782,38.372 25.315,38.005 L26.534,33.234 C27.974,33.601 32.688,34.324 31.988,37.135 z M32.66,30.146 C32.044,32.596 28.273,31.354 27.048,31.049 L28.126,26.719 C29.357,27.024 33.309,27.594 32.66,30.146 z" fill="#FFFFFF" id="BITCOIN"/>
        </g>
      </g>
      <g>
        <path d="M86.09,19.958 Q87.428,21.386 88.142,23.036 Q88.856,24.732 88.856,26.695 L88.856,26.784 Q88.856,29.059 87.874,30.977 Q87.517,31.691 87.049,32.338 Q86.581,32.985 86.045,33.52 Q87.205,34.724 87.874,36.107 Q88.856,37.936 88.856,40.301 L88.856,40.345 Q88.856,42.397 88.142,44.093 Q87.294,45.877 86.09,47.126 Q84.707,48.42 83.056,49.134 Q81.317,49.892 79.354,49.892 L68.067,49.892 L68.067,30.754 L79.354,30.754 Q80.201,30.754 80.96,30.442 Q81.674,30.174 82.253,29.594 Q82.789,29.059 83.146,28.3 Q83.458,27.542 83.458,26.784 L83.458,26.695 Q83.458,26.293 83.369,25.914 Q83.279,25.535 83.146,25.178 Q82.923,24.821 82.722,24.486 Q82.521,24.152 82.253,23.884 Q81.986,23.572 81.651,23.371 Q81.317,23.17 80.96,22.992 Q80.112,22.68 79.354,22.68 L68.067,22.68 L68.067,17.192 L79.354,17.192 Q81.317,17.192 83.056,17.951 Q84.707,18.665 86.09,19.958 z M79.354,44.45 Q80.112,44.45 80.915,44.093 Q81.763,43.736 82.253,43.245 Q82.789,42.621 83.101,41.907 Q83.458,41.104 83.458,40.345 L83.458,40.301 Q83.458,39.855 83.369,39.475 Q83.279,39.096 83.146,38.739 Q82.923,38.382 82.722,38.048 Q82.521,37.713 82.253,37.446 Q81.674,36.866 80.96,36.598 Q80.201,36.286 79.354,36.286 L73.51,36.286 L73.51,44.45 z" fill="#F69434"/>
        <path d="M97.659,49.892 L97.659,17.192 L103.458,17.192 L103.458,49.892 z" fill="#F69434"/>
        <path d="M110.879,22.68 L110.879,17.192 L134.388,17.192 L134.388,22.68 z M119.845,49.892 L119.845,24.821 L125.645,24.821 L125.645,49.892 z" fill="#F69434"/>
        <path d="M151.088,18.442 Q153.987,17.192 157.333,17.192 L165.631,17.192 L165.631,22.68 L157.333,22.68 Q155.147,22.68 153.095,23.572 Q152.114,24.018 151.244,24.576 Q150.374,25.133 149.66,25.892 Q148.902,26.65 148.322,27.498 Q147.742,28.345 147.34,29.371 Q146.493,31.245 146.493,33.565 Q146.493,35.84 147.34,37.803 Q148.143,39.721 149.66,41.238 Q150.374,41.996 151.244,42.554 Q152.114,43.111 153.095,43.557 Q155.147,44.405 157.333,44.405 L165.631,44.405 L165.631,49.892 L157.333,49.892 Q154.032,49.892 151.088,48.688 Q149.615,48.063 148.277,47.171 Q146.939,46.279 145.779,45.119 L145.734,45.119 Q143.415,42.71 142.21,39.81 Q141.006,36.821 141.006,33.565 Q141.006,30.263 142.21,27.319 Q143.37,24.375 145.734,21.966 L145.779,21.966 Q148.188,19.646 151.088,18.442 z" fill="#F69434"/>
        <path d="M189.423,49.937 Q186.166,49.937 183.088,48.643 Q180.099,47.349 177.869,45.119 Q175.594,42.844 174.389,39.944 Q173.096,36.821 173.096,33.565 Q173.096,30.308 174.389,27.185 Q175.014,25.758 175.884,24.464 Q176.754,23.17 177.869,22.01 Q180.099,19.78 183.088,18.486 Q186.033,17.237 189.423,17.237 Q192.858,17.237 195.802,18.486 Q198.791,19.78 201.022,22.01 Q202.137,23.17 203.007,24.464 Q203.877,25.758 204.501,27.185 Q205.795,30.308 205.795,33.565 Q205.795,36.821 204.501,39.944 Q203.297,42.844 201.022,45.119 Q198.791,47.349 195.802,48.643 Q192.724,49.937 189.423,49.937 z M189.423,23.036 Q187.237,23.036 185.319,23.862 Q183.401,24.687 181.973,26.115 Q180.546,27.542 179.72,29.46 Q178.895,31.379 178.895,33.565 Q178.895,35.75 179.72,37.669 Q180.546,39.587 181.973,41.037 Q183.401,42.487 185.319,43.312 Q187.237,44.137 189.423,44.137 Q191.609,44.137 193.527,43.312 Q195.445,42.487 196.895,41.037 Q198.345,39.587 199.17,37.669 Q199.996,35.75 199.996,33.565 Q199.996,31.379 199.17,29.46 Q198.345,27.542 196.895,26.115 Q195.445,24.687 193.527,23.862 Q191.609,23.036 189.423,23.036 z" fill="#F69434"/>
        <path d="M214.152,49.892 L214.152,17.192 L219.952,17.192 L219.952,49.892 z" fill="#F69434"/>
        <path d="M229.112,49.892 L229.112,28.345 L234.599,33.832 L234.599,49.892 z M248.562,17.192 L254.049,17.192 L254.049,42.13 L254.049,49.892 L248.562,44.405 L234.599,30.442 L229.112,24.955 L229.112,17.192 L234.599,22.68 L248.562,36.643 z" fill="#F69434"/>
        <path d="M290.169,17.282 L287.224,22.769 L274.867,22.769 L274.867,17.282 z M295.566,22.769 L284.012,44.45 L298.422,44.45 L298.422,49.937 L281.113,49.937 L274.867,49.937 L277.811,44.45 L289.366,22.769 L292.265,17.282 L298.466,17.282 z" fill="#FFFFFF"/>
        <path d="M312.667,36.33 L312.667,44.405 L329.485,44.405 L329.485,49.892 L307.18,49.892 L307.18,24.821 L312.667,24.821 L312.667,30.799 L321.188,30.799 L321.188,36.33 z M307.18,22.68 L307.18,17.192 L329.485,17.192 L329.485,22.68 z" fill="#FFFFFF"/>
        <path d="M353.456,37.516 L360.282,48.892 L353.59,48.892 L346.809,37.516 z M353.768,34.527 Q351.895,35.33 349.843,35.33 L343.686,35.33 L343.686,48.892 L337.887,48.892 L337.887,29.799 L349.843,29.799 Q350.824,29.799 351.493,29.486 Q351.895,29.353 352.229,29.13 Q352.564,28.906 352.832,28.639 Q353.456,28.014 353.768,27.345 Q353.902,26.988 353.992,26.609 Q354.081,26.23 354.081,25.784 L354.081,25.695 Q354.081,24.981 353.768,24.133 Q353.456,23.419 352.832,22.884 Q352.341,22.349 351.493,21.992 Q350.646,21.68 349.843,21.68 L337.887,21.68 L337.887,16.192 L349.843,16.192 Q351.85,16.192 353.724,16.951 Q355.642,17.709 356.936,19.003 Q358.23,20.252 359.077,21.992 Q359.88,23.732 359.88,25.695 L359.88,25.784 Q359.88,27.747 359.077,29.486 Q358.274,31.271 356.936,32.52 Q355.598,33.769 353.768,34.527 z" fill="#FFFFFF"/>
        <path d="M383.628,49.937 Q380.371,49.937 377.293,48.643 Q374.304,47.349 372.074,45.119 Q369.799,42.844 368.594,39.944 Q367.3,36.821 367.3,33.565 Q367.3,30.308 368.594,27.185 Q369.219,25.758 370.089,24.464 Q370.958,23.17 372.074,22.01 Q374.304,19.78 377.293,18.486 Q380.237,17.237 383.628,17.237 Q387.063,17.237 390.007,18.486 Q392.996,19.78 395.227,22.01 Q396.342,23.17 397.212,24.464 Q398.082,25.758 398.706,27.185 Q400,30.308 400,33.565 Q400,36.821 398.706,39.944 Q397.502,42.844 395.227,45.119 Q392.996,47.349 390.007,48.643 Q386.929,49.937 383.628,49.937 z M383.628,23.036 Q381.442,23.036 379.524,23.862 Q377.605,24.687 376.178,26.115 Q374.75,27.542 373.925,29.46 Q373.1,31.379 373.1,33.565 Q373.1,35.75 373.925,37.669 Q374.75,39.587 376.178,41.037 Q377.605,42.487 379.524,43.312 Q381.442,44.137 383.628,44.137 Q385.814,44.137 387.732,43.312 Q389.65,42.487 391.1,41.037 Q392.55,39.587 393.375,37.669 Q394.201,35.75 394.201,33.565 Q394.201,31.379 393.375,29.46 Q392.55,27.542 391.1,26.115 Q389.65,24.687 387.732,23.862 Q385.814,23.036 383.628,23.036 z" fill="#FFFFFF"/>
      </g>
    </g>
  </g>
</svg>
