<?xml version="1.0" standalone="no"?>
<!DOCTYPE svg PUBLIC "-//W3C//DTD SVG 20010904//EN"
 "http://www.w3.org/TR/2001/REC-SVG-20010904/DTD/svg10.dtd">
<svg version="1.0" xmlns="http://www.w3.org/2000/svg"
 width="128.000000pt" height="128.000000pt" viewBox="0 0 128.000000 128.000000"
 preserveAspectRatio="xMidYMid meet">
<metadata>
Created by potrace 1.15, written by Peter Selinger 2001-2017
</metadata>
<g transform="translate(0.000000,128.000000) scale(0.100000,-0.100000)"
fill="#000000" stroke="none">
<path d="M366 975 c-34 -31 -36 -90 -5 -129 19 -24 20 -32 11 -64 -6 -20 -18
-63 -27 -94 -12 -44 -21 -58 -35 -58 -10 0 -31 -11 -47 -24 -22 -19 -28 -32
-28 -64 0 -57 34 -92 90 -92 22 0 46 5 52 11 8 8 42 -10 122 -63 88 -58 110
-77 107 -92 -7 -27 18 -82 42 -95 34 -18 79 -13 109 13 24 20 28 32 28 75 0
47 3 53 53 104 53 53 54 54 103 49 42 -4 54 -1 74 18 51 48 39 121 -25 152
-32 17 -36 23 -52 99 l-18 82 25 25 c51 50 26 138 -44 155 -33 8 -83 -15 -99
-45 -14 -25 -16 -25 -105 -21 -120 5 -177 12 -177 22 0 5 -12 20 -26 35 -36
35 -91 36 -128 1z m350 -95 c65 0 73 -2 79 -21 6 -18 -9 -37 -80 -109 l-86
-87 -38 10 c-35 10 -41 17 -74 89 -19 43 -32 78 -28 78 4 0 14 12 22 26 13 25
16 26 73 20 32 -3 92 -6 132 -6z m-234 -136 l35 -77 -22 -41 c-18 -35 -27 -41
-56 -44 -26 -1 -38 3 -52 23 -17 23 -16 27 10 120 14 52 32 95 38 95 7 0 28
-34 47 -76z m383 57 c15 -6 23 -27 36 -90 l16 -82 -28 -30 -28 -30 -83 11
c-45 5 -88 10 -94 10 -6 0 -16 10 -21 23 -10 20 -2 31 75 110 88 89 92 91 127
78z m-365 -271 c6 -12 29 -25 54 -32 39 -10 44 -15 65 -70 13 -33 21 -62 18
-64 -10 -10 -227 141 -224 156 2 12 23 21 69 29 4 0 12 -8 18 -19z m342 3 c47
-9 36 -41 -35 -103 -51 -45 -67 -54 -93 -52 -28 3 -35 10 -58 63 -25 57 -25
61 -9 86 16 25 19 25 91 19 41 -4 88 -10 104 -13z"/>
</g>
</svg>
