<?xml version="1.0" encoding="UTF-8"?>
<!-- Generator: Adobe Illustrator 19.0.0, SVG Export Plug-In . SVG Version: 6.00 Build 0)  -->
<svg version="1.1" id="Layer_1" xmlns="http://www.w3.org/2000/svg" xmlns:xlink="http://www.w3.org/1999/xlink" x="0px" y="0px" viewBox="-75 10 100 106.3" style="enable-background:new -75 10 100 106.3;" xml:space="preserve">
<g>
	<style type="text/css">
	.st1{fill:#000000;stroke:none;stroke-width:2;stroke-miterlimit:10;}	</style>
	<path class="st1" d="M-25,35.6c5.7,0,10.4-4.7,10.4-10.4v-0.5c0-5.7-4.7-10.4-10.4-10.4S-35.4,19-35.4,24.7v0.5C-35.4,31-30.7,35.6-25,35.6z    M-31.4,24.7c0-3.5,2.9-6.4,6.4-6.4s6.4,2.9,6.4,6.4v0.5c0,3.5-2.9,6.4-6.4,6.4s-6.4-2.9-6.4-6.4V24.7z"/>
	<path class="st1" d="M-42.1,49v22.4c0,2.6,1.4,4.9,3.6,6.1l0.9,0.5c1,0.5,1.6,1.5,1.6,2.6v18.1c0,3.9,3.1,7,7,7h8c3.9,0,7-3.1,7-7V80.6   c0-1.1,0.6-2.1,1.6-2.6l0.9-0.5c2.2-1.2,3.6-3.6,3.6-6.1V49c0-3.9-3.1-7-7-7h-20.2C-38.9,42-42.1,45.1-42.1,49z M-38.1,49   c0-1.7,1.3-3,3-3h20.2c1.7,0,3,1.3,3,3v22.4c0,1.1-0.6,2.1-1.6,2.6l-0.9,0.5c-2.2,1.2-3.6,3.6-3.6,6.1v18.1c0,1.7-1.3,3-3,3h-8   c-1.7,0-3-1.3-3-3V80.6c0-2.6-1.4-4.9-3.6-6.1l-0.9-0.5c-1-0.5-1.6-1.5-1.6-2.6V49z"/>
	<path class="st1" d="M0.1,16.6c-5.7,0-10.4,4.7-10.4,10.4v0.5c0,5.7,4.7,10.4,10.4,10.4c5.7,0,10.4-4.7,10.4-10.4V27   C10.5,21.2,5.9,16.6,0.1,16.6z M6.5,27.5c0,3.5-2.9,6.4-6.4,6.4s-6.4-2.9-6.4-6.4V27c0-3.5,2.9-6.4,6.4-6.4s6.4,2.9,6.4,6.4V27.5z"/>
	<path class="st1" d="M15,72.1V51.2c0-3.9-3.1-7-7-7h-9.6c-1.1,0-2,0.9-2,2s0.9,2,2,2H8c1.7,0,3,1.3,3,3v19.7l-5,2.8c-0.6,0.4-1,1-1,1.8v17.7   c0,1.7-1.3,3-3,3h-8.6c-1.1,0-2,0.9-2,2s0.9,2,2,2H2c3.9,0,7-3.1,7-7V76.6l5-2.8C14.6,73.5,15,72.8,15,72.1z"/>
	<path class="st1" d="M-50.1,16.6c-5.7,0-10.4,4.7-10.4,10.4v0.5c0,5.7,4.7,10.4,10.4,10.4s10.4-4.7,10.4-10.4V27   C-39.8,21.2-44.4,16.6-50.1,16.6z M-43.8,27.5c0,3.5-2.9,6.4-6.4,6.4s-6.4-2.9-6.4-6.4V27c0-3.5,2.9-6.4,6.4-6.4s6.4,2.9,6.4,6.4   V27.5z"/>
	<path class="st1" d="M-61.4,75.3l0.9,0.5c1,0.5,1.6,1.5,1.6,2.6v14.7c0,3.9,3.1,7,7,7h8.6c1.1,0,2-0.9,2-2s-0.9-2-2-2h-8.6c-1.7,0-3-1.3-3-3   V78.4c0-2.6-1.4-4.9-3.6-6.1l-0.9-0.5c-1-0.5-1.6-1.5-1.6-2.6v-18c0-1.7,1.3-3,3-3h9.6c1.1,0,2-0.9,2-2s-0.9-2-2-2H-58   c-3.9,0-7,3.1-7,7v18C-65,71.7-63.6,74-61.4,75.3z"/>
</g>
</svg>
