<?xml version="1.0" encoding="UTF-8"?>
<!-- Generator: Adobe Illustrator 22.0.1, SVG Export Plug-In . SVG Version: 6.00 Build 0) -->
<svg xmlns="http://www.w3.org/2000/svg" xmlns:xlink="http://www.w3.org/1999/xlink" x="0px" y="0px" viewBox="0 0 128 128" style="enable-background:new 0 0 128 128;" xml:space="preserve"> <style type="text/css"> .st0{fill:#FFFFFF;} .st1{fill:none;stroke:#BEBEBE;stroke-width:3;stroke-linecap:round;stroke-linejoin:round;stroke-miterlimit:10;} .st2{fill:none;stroke:#0094DF;stroke-width:3;stroke-linecap:round;stroke-linejoin:round;stroke-miterlimit:10;} .st3{fill:none;stroke:#BEBEBE;stroke-width:3;stroke-linejoin:round;stroke-miterlimit:10;} .st4{fill:none;stroke:#0094DF;stroke-width:3;stroke-linejoin:round;stroke-miterlimit:10;} .st5{fill:none;stroke:#BEBEBE;stroke-width:3;stroke-linecap:round;stroke-miterlimit:10;} .st6{fill:none;stroke:#0094DF;stroke-width:3;stroke-linecap:round;stroke-miterlimit:10;} </style> <g id="Circle"> <circle class="st0" cx="64" cy="64" r="64"/> </g> <g id="Icon"> <g> <circle class="st1" cx="57.6" cy="69.5" r="7.4"/> <circle class="st1" cx="95.6" cy="74.1" r="7.4"/> <circle class="st1" cx="69.6" cy="98.9" r="7.4"/> <circle class="st1" cx="32.4" cy="74.1" r="7.4"/> <circle class="st1" cx="42.9" cy="37.1" r="7.4"/> <circle class="st1" cx="88.2" cy="38.7" r="7.4"/> <line class="st1" x1="50.2" y1="37.1" x2="80.9" y2="38.7"/> <line class="st1" x1="45.9" y1="43.8" x2="54.6" y2="62.8"/> <line class="st1" x1="40.9" y1="44.2" x2="34.4" y2="67"/> <line class="st1" x1="62.8" y1="64.3" x2="82.8" y2="44.2"/> <line class="st1" x1="89.8" y1="46.1" x2="94.1" y2="67"/> <line class="st1" x1="89.8" y1="79.3" x2="74.8" y2="93.7"/> <line class="st1" x1="64.9" y1="70.4" x2="88.2" y2="73.2"/> <line class="st1" x1="60.4" y1="76.4" x2="66.8" y2="92"/> <line class="st1" x1="63.4" y1="94.8" x2="38.5" y2="78.2"/> <line class="st1" x1="50.2" y1="70.9" x2="39.6" y2="72.8"/> </g> </g> </svg>