<?xml version="1.0" encoding="UTF-8"?>
<!-- Generator: Adobe Illustrator 19.0.0, SVG Export Plug-In . SVG Version: 6.00 Build 0)  -->
<svg version="1.1" id="Layer_1" xmlns:cc="http://creativecommons.org/ns#" xmlns:svg="http://www.w3.org/2000/svg" xmlns:rdf="http://www.w3.org/1999/02/22-rdf-syntax-ns#" xmlns:sodipodi="http://sodipodi.sourceforge.net/DTD/sodipodi-0.dtd" xmlns:inkscape="http://www.inkscape.org/namespaces/inkscape" xmlns:dc="http://purl.org/dc/elements/1.1/" xmlns="http://www.w3.org/2000/svg" xmlns:xlink="http://www.w3.org/1999/xlink" x="0px" y="0px" viewBox="-463 263.4 32 34.6" style="enable-background:new -463 263.4 32 34.6;" xml:space="preserve">
<style type="text/css">
	.st0{fill:#144F84;}
</style>
<g>
	<path class="st0" d="M-437.9,271.6c-2.9-0.2-5.7-1.5-7.8-3.6l-0.5-0.6c-0.4-0.4-1.2-0.4-1.6,0l-0.5,0.6c-2.1,2.1-4.8,3.3-7.8,3.6   c-0.6,0.1-1,0.5-1,1.1v3.2c0,6.8,3.7,13.1,9.6,16.4c0.2,0.1,0.4,0.1,0.6,0.1s0.4-0.1,0.6-0.1c5.9-3.3,9.6-9.6,9.6-16.4v-3.3   C-436.9,272.1-437.3,271.6-437.9,271.6z M-439.1,276c0,5.8-3,11.1-7.9,14.1c-4.9-3-7.9-8.3-7.9-14.1v-2.2c3-0.5,5.7-1.8,7.9-3.9   c2.2,2.1,4.9,3.4,7.9,3.9V276z"/>
	<path class="st0" d="M-450,278.7c-0.4-0.4-1.1-0.4-1.6,0c-0.4,0.4-0.4,1.1,0,1.6l2.8,2.8c0.2,0.2,0.5,0.3,0.8,0.3h0   c0.3,0,0.6-0.1,0.8-0.4l5-5.4c0.4-0.5,0.4-1.2-0.1-1.6c-0.5-0.4-1.2-0.4-1.6,0.1l-4.2,4.5L-450,278.7z"/>
</g>
</svg>