<?xml version="1.0" encoding="UTF-8"?>
<!DOCTYPE svg PUBLIC "-//W3C//DTD SVG 1.1//EN" "http://www.w3.org/Graphics/SVG/1.1/DTD/svg11.dtd">
<!-- Creator: CorelDRAW 2017 -->
<svg xmlns="http://www.w3.org/2000/svg" xml:space="preserve" width="447px" height="510px" version="1.1" style="shape-rendering:geometricPrecision; text-rendering:geometricPrecision; image-rendering:optimizeQuality; fill-rule:evenodd; clip-rule:evenodd"
viewBox="0 0 8615000 9818000"
 xmlns:xlink="http://www.w3.org/1999/xlink">
 <defs>
  <style type="text/css">
   <![CDATA[
    .str0 {stroke:#01579B;stroke-width:193000}
    .fil0 {fill:none}
   ]]>
  </style>
 </defs>
 <g id="Слой_x0020_1">
  <metadata id="CorelCorpID_0Corel-Layer"/>
  <path class="fil0 str0" d="M7314000 5892000l449000 -1176000c75000,-198000 -69000,-408000 -282000,-408000l-812000 0c28000,-147000 45000,-297000 45000,-452000 0,-135000 -17000,-267000 -41000,-396000 761000,-185000 1244000,-455000 1244000,-756000 0,-310000 -507000,-587000 -1303000,-771000 -167000,-632000 -515000,-1276000 -776000,-1606000 -119000,-150000 -295000,-231000 -476000,-231000 -178000,0 -231000,45000 -786000,324000 -240000,120000 -456000,39000 -537000,0 -561000,-281000 -609000,-324000 -786000,-324000 -181000,0 -355000,81000 -474000,230000 -261000,329000 -609000,973000 -776000,1605000 -798000,184000 -1305000,463000 -1305000,773000 0,303000 483000,573000 1244000,756000 -24000,129000 -41000,261000 -41000,396000 0,155000 17000,305000 45000,452000l-791000 0c-217000,0 -361000,220000 -277000,419000l485000 1132000c-754000,438000 -1267000,1244000 -1267000,2179000l0 842000c0,464000 378000,842000 842000,842000l6739000 0c464000,0 842000,-378000 842000,-842000l0 -842000c0,-910000 -485000,-1700000 -1205000,-2146000zm-4811000 -2036000c0,-50000 5000,-99000 11000,-148000 24000,15000 96000,62000 109000,101000 73000,224000 132000,463000 310000,628000 151000,139000 884000,472000 1203000,-470000 53000,-158000 290000,-158000 345000,0 300000,891000 1013000,647000 1203000,470000 178000,-165000 239000,-404000 310000,-628000 13000,-39000 83000,-86000 109000,-101000 6000,49000 11000,98000 11000,148000 0,995000 -810000,1805000 -1805000,1805000 -994000,0 -1806000,-810000 -1806000,-1805000zm-13000 -1419000c13000,-51000 231000,-1072000 761000,-1739000 540000,271000 709000,385000 1057000,385000 349000,0 520000,-118000 1056000,-385000l2000 2000c528000,665000 746000,1684000 760000,1737000 402000,92000 673000,148000 958000,267000 -456000,186000 -1417000,400000 -2776000,400000 -1360000,0 -2320000,-214000 -2777000,-400000 285000,-119000 562000,-175000 959000,-267000l0 0zm-1552000 6683000c-133000,0 -240000,-107000 -240000,-240000l0 -842000c0,-687000 361000,-1307000 966000,-1659000l463000 -267000 -515000 -1203000 543000 0c88000,181000 1209000,2040000 1209000,2040000l-581000 2171000 -1845000 0zm2467000 0l602000 -2256000 -412000 -721000c228000,71000 463000,120000 713000,120000 250000,0 486000,-49000 712000,-120000l-412000 721000 602000 2256000 -1805000 0zm4512000 -240000c0,133000 -107000,240000 -240000,240000l-1845000 0 -579000 -2171000c0,0 1121000,-1859000 1209000,-2040000l583000 0 -470000 1234000 423000 261000c575000,355000 919000,966000 919000,1634000l0 842000z"/>
 </g>
</svg>
