<?xml version="1.0" standalone="no"?>
<!DOCTYPE svg PUBLIC "-//W3C//DTD SVG 20010904//EN"
 "http://www.w3.org/TR/2001/REC-SVG-20010904/DTD/svg10.dtd">
<svg version="1.0" xmlns="http://www.w3.org/2000/svg"
 width="260.000000pt" height="260.000000pt" viewBox="0 0 260.000000 260.000000"
 preserveAspectRatio="xMidYMid meet">
<metadata>
Created by potrace 1.15, written by Peter Selinger 2001-2017
</metadata>
<g transform="translate(0.000000,260.000000) scale(0.100000,-0.100000)"
fill="#000000" stroke="none">
<path d="M1220 2329 c-31 -13 -88 -66 -105 -99 -39 -76 -20 -175 45 -234 22
-19 51 -38 65 -42 l25 -6 0 -123 0 -122 -37 -7 c-139 -23 -286 -170 -309 -308
l-7 -38 -122 0 -123 0 -6 25 c-4 14 -22 43 -42 65 -60 66 -156 84 -234 45 -35
-18 -87 -75 -99 -108 -15 -39 -14 -111 2 -150 27 -62 121 -127 187 -127 67 0
159 64 182 126 l12 34 123 0 c116 0 123 -1 123 -20 0 -29 38 -125 62 -155 l21
-27 -83 -83 c-81 -81 -84 -83 -110 -70 -163 84 -347 -93 -271 -260 39 -87 143
-139 230 -115 50 13 119 72 138 117 16 39 17 109 2 153 -12 32 -11 33 70 114
71 71 83 79 99 68 35 -26 118 -62 155 -68 l37 -7 0 -122 0 -123 -25 -6 c-14
-4 -43 -23 -65 -42 -65 -59 -84 -158 -45 -234 18 -35 75 -87 108 -99 39 -15
111 -14 150 2 62 27 127 121 127 187 0 67 -64 159 -126 182 l-34 12 0 123 c0
121 0 123 23 123 28 1 125 40 164 68 l30 21 78 -79 78 -79 -17 -54 c-63 -201
180 -351 329 -203 119 120 58 304 -113 341 -21 4 -52 1 -88 -11 l-55 -17 -78
77 -78 78 34 66 c62 122 65 236 9 358 -48 105 -173 204 -278 220 l-38 7 0 121
0 122 34 12 c62 23 126 115 126 182 0 66 -65 160 -127 187 -37 15 -117 16
-153 2z m141 -92 c53 -33 64 -120 22 -167 -52 -57 -129 -56 -177 1 -83 98 45
235 155 166z m75 -652 c61 -30 118 -89 147 -154 33 -72 31 -188 -6 -262 -99
-202 -368 -240 -515 -73 -126 143 -101 358 55 468 88 61 219 70 319 21z m-915
-182 c61 -36 69 -125 15 -179 -26 -26 -42 -34 -71 -34 -70 0 -119 48 -119 115
0 91 96 145 175 98z m237 -577 c74 -38 74 -164 0 -202 -111 -58 -223 68 -152
171 31 44 100 58 152 31z m1182 -1 c58 -30 76 -104 40 -163 -53 -87 -191 -60
-207 40 -15 98 80 168 167 123z m-557 -285 c65 -72 11 -184 -88 -184 -97 0
-151 110 -89 183 48 57 125 58 177 1z"/>
</g>
</svg>
