<?xml version="1.0" encoding="UTF-8"?>
<!-- Generator: Adobe Illustrator 21.0.0, SVG Export Plug-In . SVG Version: 6.00 Build 0)  -->
<svg version="1.1" id="Layer_1" xmlns="http://www.w3.org/2000/svg" xmlns:xlink="http://www.w3.org/1999/xlink" x="0px" y="0px" viewBox="0 0 110 110" style="enable-background:new 0 0 110 110;" xml:space="preserve">
<style type="text/css">
	.st0{clip-path:url(#SVGID_2_);fill:url(#SVGID_3_);}
	.st1{clip-path:url(#SVGID_5_);fill:url(#SVGID_6_);}
	.st2{clip-path:url(#SVGID_8_);fill:url(#SVGID_9_);}
	.st3{clip-path:url(#SVGID_11_);fill:url(#SVGID_12_);}
	.st4{clip-path:url(#SVGID_14_);fill:url(#SVGID_15_);}
</style>
<g>
	<defs>
		<path id="SVGID_1_" d="M31,69.8c-0.6-0.6-1.6-0.6-2.2,0l-3.3,3.3c-0.6,0.6-0.6,1.6,0,2.2c0.3,0.3,0.7,0.5,1.1,0.5    c0.4,0,0.8-0.2,1.1-0.5l3.3-3.3C31.6,71.5,31.6,70.5,31,69.8z"/>
	</defs>
	<clipPath id="SVGID_2_">
		<use xlink:href="#SVGID_1_" style="overflow:visible;"/>
	</clipPath>
	<linearGradient id="SVGID_3_" gradientUnits="userSpaceOnUse" x1="22" y1="88" x2="88" y2="22">
		<stop offset="0" style="stop-color:#1A9690"/>
		<stop offset="1" style="stop-color:#247CB5"/>
	</linearGradient>
	<rect x="22" y="22" class="st0" width="66" height="66"/>
</g>
<g>
	<defs>
		<path id="SVGID_4_" d="M35.6,74.4c-0.6-0.6-1.6-0.6-2.2,0L22.5,85.3c-0.6,0.6-0.6,1.6,0,2.2c0.3,0.3,0.7,0.5,1.1,0.5    c0.4,0,0.8-0.2,1.1-0.5l10.9-10.9C36.2,76.1,36.2,75.1,35.6,74.4z"/>
	</defs>
	<clipPath id="SVGID_5_">
		<use xlink:href="#SVGID_4_" style="overflow:visible;"/>
	</clipPath>
	<linearGradient id="SVGID_6_" gradientUnits="userSpaceOnUse" x1="22" y1="88" x2="88" y2="22">
		<stop offset="0" style="stop-color:#1A9690"/>
		<stop offset="1" style="stop-color:#247CB5"/>
	</linearGradient>
	<rect x="22" y="22" class="st1" width="66" height="66"/>
</g>
<g>
	<defs>
		<path id="SVGID_7_" d="M40.2,79c-0.6-0.6-1.6-0.6-2.2,0l-5.4,5.4c-0.6,0.6-0.6,1.6,0,2.2c0.3,0.3,0.7,0.5,1.1,0.5    c0.4,0,0.8-0.2,1.1-0.5l5.4-5.4C40.8,80.7,40.8,79.7,40.2,79z"/>
	</defs>
	<clipPath id="SVGID_8_">
		<use xlink:href="#SVGID_7_" style="overflow:visible;"/>
	</clipPath>
	<linearGradient id="SVGID_9_" gradientUnits="userSpaceOnUse" x1="22" y1="88" x2="88" y2="22">
		<stop offset="0" style="stop-color:#1A9690"/>
		<stop offset="1" style="stop-color:#247CB5"/>
	</linearGradient>
	<rect x="22" y="22" class="st2" width="66" height="66"/>
</g>
<g>
	<defs>
		<path id="SVGID_10_" d="M70.1,39.9c-1.8-1.8-4.3-2.9-6.9-2.9c-2.6,0-5.1,1-6.9,2.9c-1.8,1.8-2.9,4.3-2.9,6.9c0,2.6,1,5.1,2.9,6.9    c1.8,1.8,4.3,2.9,6.9,2.9c2.6,0,5.1-1,6.9-2.9C73.9,50,73.9,43.8,70.1,39.9z M67.8,51.5c-1.2,1.2-2.9,1.9-4.7,1.9    c-1.8,0-3.4-0.7-4.7-1.9c-1.2-1.2-1.9-2.9-1.9-4.7c0-1.8,0.7-3.4,1.9-4.7c1.2-1.2,2.9-1.9,4.7-1.9c1.8,0,3.4,0.7,4.7,1.9    C70.4,44.8,70.4,49,67.8,51.5z"/>
	</defs>
	<clipPath id="SVGID_11_">
		<use xlink:href="#SVGID_10_" style="overflow:visible;"/>
	</clipPath>
	<linearGradient id="SVGID_12_" gradientUnits="userSpaceOnUse" x1="22" y1="88" x2="88" y2="22">
		<stop offset="0" style="stop-color:#1A9690"/>
		<stop offset="1" style="stop-color:#247CB5"/>
	</linearGradient>
	<rect x="22" y="22" class="st3" width="66" height="66"/>
</g>
<g>
	<defs>
		<path id="SVGID_13_" d="M86.9,24.2c-0.1-0.5-0.6-1-1.1-1.1c-5.4-1.4-11.2-1.5-16.6-0.1c-0.8,0.2-1.7,0.5-2.5,0.8    c-0.1,0-0.1,0-0.2,0.1c-4.5,1.6-8.7,4.2-12.1,7.6c0,0,0,0,0,0c0,0,0,0,0,0c0,0,0,0,0,0c0,0,0,0,0,0l-4.9,5.7    c-7.6-0.1-15.1,2.9-20.5,8.3c-1.8,1.8-3.3,3.7-4.5,5.9c-0.2,0.4-0.3,1-0.1,1.4c0.2,0.5,0.6,0.8,1.1,0.9l8.8,2.2l-1.7,4.7    c-0.9,2.3-0.3,4.9,1.5,6.7l8.6,8.6c1.2,1.2,2.8,1.9,4.5,1.9c0.7,0,1.5-0.1,2.2-0.4l4.7-1.7l2.2,8.8c0.1,0.5,0.5,0.9,0.9,1.1    c0.2,0.1,0.4,0.1,0.6,0.1c0.3,0,0.6-0.1,0.8-0.2c2.1-1.2,4.1-2.8,5.9-4.5c5.4-5.4,8.4-12.8,8.3-20.5l5.7-4.9c0,0,0,0,0,0    c0,0,0,0,0,0c0,0,0,0,0,0c0,0,0,0,0,0c3.4-3.4,6-7.6,7.6-12.1c0-0.1,0.1-0.1,0.1-0.2c0.3-0.8,0.5-1.7,0.8-2.5    C88.4,35.4,88.3,29.6,86.9,24.2z M28.3,51.3c0.8-1.2,1.8-2.4,2.9-3.4c4.1-4.1,9.6-6.7,15.4-7.3L35.7,53.2L28.3,51.3z M35.5,61.8    l1.5-4l2,2l-3.1,4.9C35.3,64,35.1,62.8,35.5,61.8z M38.2,67.1l3.1-5l2.2,2.2l-4,4L38.2,67.1z M41.6,70.6l4-4l2.2,2.2l-5,3.1    L41.6,70.6z M48.2,74.5c-1,0.4-2.1,0.2-3-0.4l4.9-3.1l2,2L48.2,74.5z M62.1,78.8c-1.1,1.1-2.2,2-3.4,2.9l-1.9-7.4l12.6-10.8    C68.9,69.2,66.3,74.7,62.1,78.8z M76.3,53.4L55.1,71.5L38.5,54.9l12.8-14.9c0,0,0,0,0,0l5.3-6.2c2.9-2.9,6.3-5.1,10.1-6.6    l16.1,16.1C81.4,47.1,79.1,50.5,76.3,53.4z M83.9,39.9L70.1,26.1c4.6-1.2,9.4-1.2,14-0.1C85.1,30.5,85.1,35.3,83.9,39.9z"/>
	</defs>
	<clipPath id="SVGID_14_">
		<use xlink:href="#SVGID_13_" style="overflow:visible;"/>
	</clipPath>
	<linearGradient id="SVGID_15_" gradientUnits="userSpaceOnUse" x1="22" y1="88" x2="88" y2="22">
		<stop offset="0" style="stop-color:#1A9690"/>
		<stop offset="1" style="stop-color:#247CB5"/>
	</linearGradient>
	<rect x="22" y="22" class="st4" width="66" height="66"/>
</g>
</svg>