<?xml version="1.0" encoding="UTF-8"?>
<!-- Generator: Adobe Illustrator 21.1.0, SVG Export Plug-In . SVG Version: 6.00 Build 0)  -->
<svg version="1.1" id="Layer_1" xmlns="http://www.w3.org/2000/svg" xmlns:xlink="http://www.w3.org/1999/xlink" x="0px" y="0px" viewBox="0 0 100 100" style="enable-background:new 0 0 100 100;" xml:space="preserve">
<style type="text/css">
	.st0{fill:#006CB5;}
</style>
<title>EComponents Copy 4</title>
<desc>Created with Sketch.</desc>
<g>
	<g>
		<path class="st0" d="M16,84l0-68h68l0,0l0,68L16,84z M94,32c1.1,0,2-0.9,2-2c0-1.1-0.9-2-2-2h-6v-4h6c1.1,0,2-0.9,2-2    c0-1.1-0.9-2-2-2h-6v-4c0-2.2-1.8-4-4-4h-4V6c0-1.1-0.9-2-2-2c-1.1,0-2,0.9-2,2v6h-4V6c0-1.1-0.9-2-2-2c-1.1,0-2,0.9-2,2v6h-4V6    c0-1.1-0.9-2-2-2c-1.1,0-2,0.9-2,2v6h-4V6c0-1.1-0.9-2-2-2c-1.1,0-2,0.9-2,2v6h-4V6c0-1.1-0.9-2-2-2c-1.1,0-2,0.9-2,2v6h-4V6    c0-1.1-0.9-2-2-2c-1.1,0-2,0.9-2,2v6h-4V6c0-1.1-0.9-2-2-2c-1.1,0-2,0.9-2,2v6h-4V6c0-1.1-0.9-2-2-2c-1.1,0-2,0.9-2,2v6h-4    c-2.2,0-4,1.8-4,4v4H6c-1.1,0-2,0.9-2,2c0,1.1,0.9,2,2,2h6v4H6c-1.1,0-2,0.9-2,2c0,1.1,0.9,2,2,2h6v4H6c-1.1,0-2,0.9-2,2    c0,1.1,0.9,2,2,2h6v4H6c-1.1,0-2,0.9-2,2c0,1.1,0.9,2,2,2h6v4H6c-1.1,0-2,0.9-2,2c0,1.1,0.9,2,2,2h6v4H6c-1.1,0-2,0.9-2,2    c0,1.1,0.9,2,2,2h6v4H6c-1.1,0-2,0.9-2,2c0,1.1,0.9,2,2,2h6v4H6c-1.1,0-2,0.9-2,2c0,1.1,0.9,2,2,2h6v4c0,2.2,1.8,4,4,4h4v6    c0,1.1,0.9,2,2,2c1.1,0,2-0.9,2-2v-6h4v6c0,1.1,0.9,2,2,2c1.1,0,2-0.9,2-2v-6h4v6c0,1.1,0.9,2,2,2c1.1,0,2-0.9,2-2v-6h4v6    c0,1.1,0.9,2,2,2c1.1,0,2-0.9,2-2v-6h4v6c0,1.1,0.9,2,2,2c1.1,0,2-0.9,2-2v-6h4v6c0,1.1,0.9,2,2,2c1.1,0,2-0.9,2-2v-6h4v6    c0,1.1,0.9,2,2,2c1.1,0,2-0.9,2-2v-6h4v6c0,1.1,0.9,2,2,2c1.1,0,2-0.9,2-2v-6h4c2.2,0,4-1.8,4-4v-4h6c1.1,0,2-0.9,2-2    c0-1.1-0.9-2-2-2h-6v-4h6c1.1,0,2-0.9,2-2c0-1.1-0.9-2-2-2h-6v-4h6c1.1,0,2-0.9,2-2c0-1.1-0.9-2-2-2h-6v-4h6c1.1,0,2-0.9,2-2    c0-1.1-0.9-2-2-2h-6v-4h6c1.1,0,2-0.9,2-2c0-1.1-0.9-2-2-2h-6v-4h6c1.1,0,2-0.9,2-2c0-1.1-0.9-2-2-2h-6v-4H94z"/>
	</g>
</g>
</svg>