<?xml version="1.0" encoding="UTF-8"?>
<!-- Generator: Adobe Illustrator 19.0.0, SVG Export Plug-In . SVG Version: 6.00 Build 0)  -->
<svg version="1.1" id="Layer_1" xmlns:cc="http://creativecommons.org/ns#" xmlns:svg="http://www.w3.org/2000/svg" xmlns:rdf="http://www.w3.org/1999/02/22-rdf-syntax-ns#" xmlns:sodipodi="http://sodipodi.sourceforge.net/DTD/sodipodi-0.dtd" xmlns:inkscape="http://www.inkscape.org/namespaces/inkscape" xmlns:dc="http://purl.org/dc/elements/1.1/" xmlns="http://www.w3.org/2000/svg" xmlns:xlink="http://www.w3.org/1999/xlink" x="0px" y="0px" viewBox="-463 263.4 32 34.6" style="enable-background:new -463 263.4 32 34.6;" xml:space="preserve">
<style type="text/css">
	.st0{fill:#144F84;}
</style>
<path class="st0" d="M-457.8,282.2c0.9,0,1.7-0.6,2-1.4h4.6c0.1,0.6,0.3,1.1,0.7,1.6l-3.2,3.3c-0.8-0.3-1.7-0.2-2.4,0.5  c-0.8,0.8-0.8,2.2,0,3.1c0.8,0.8,2.2,0.8,3.1,0c0.7-0.7,0.8-1.6,0.5-2.4l3.3-3.3c0.5,0.3,1,0.5,1.6,0.7v4.6c-0.8,0.3-1.4,1.1-1.4,2  c0,1.2,1,2.1,2.1,2.1c1.2,0,2.1-1,2.1-2.1c0-0.9-0.6-1.7-1.4-2v-4.6c0.6-0.1,1.1-0.3,1.6-0.7l3.3,3.3c-0.3,0.8-0.2,1.7,0.5,2.4  c0.8,0.8,2.2,0.8,3.1,0c0.8-0.8,0.8-2.2,0-3.1c-0.7-0.7-1.6-0.8-2.4-0.5l-3.3-3.3c0.3-0.5,0.5-1,0.7-1.6h4.6c0.3,0.8,1.1,1.4,2,1.4  c1.2,0,2.1-1,2.1-2.1c0-1.2-1-2.1-2.1-2.1c-0.9,0-1.7,0.6-2,1.4h-4.6c-0.1-0.6-0.3-1.1-0.7-1.6l3.3-3.3c0.8,0.3,1.7,0.2,2.4-0.5  c0.8-0.8,0.8-2.2,0-3.1c-0.8-0.8-2.2-0.8-3.1,0c-0.7,0.7-0.8,1.6-0.5,2.4l-3.3,3.3c-0.5-0.3-1-0.5-1.6-0.7v-4.6  c0.8-0.3,1.4-1.1,1.4-2c0-1.2-1-2.1-2.1-2.1s-2.1,1-2.1,2.1c0,0.9,0.6,1.7,1.4,2v4.6c-0.6,0.1-1.1,0.3-1.6,0.7l-3.3-3.3  c0.3-0.8,0.2-1.7-0.5-2.4c-0.8-0.8-2.2-0.8-3.1,0c-0.8,0.8-0.8,2.2,0,3.1c0.7,0.7,1.6,0.8,2.4,0.5l3.3,3.3c-0.3,0.5-0.5,1-0.7,1.6  h-4.6c-0.3-0.8-1.1-1.4-2-1.4c-1.2,0-2.1,1-2.1,2.1C-459.9,281.2-459,282.2-457.8,282.2z M-447,277.8c1.2,0,2.2,1,2.2,2.2  c0,1.2-1,2.2-2.2,2.2c-1.2,0-2.2-1-2.2-2.2C-449.2,278.8-448.2,277.8-447,277.8z"/>
</svg>