<?xml version="1.0" standalone="no"?>
<!DOCTYPE svg PUBLIC "-//W3C//DTD SVG 20010904//EN"
 "http://www.w3.org/TR/2001/REC-SVG-20010904/DTD/svg10.dtd">
<svg version="1.0" xmlns="http://www.w3.org/2000/svg"
 width="256.000000pt" height="256.000000pt" viewBox="0 0 256.000000 256.000000"
 preserveAspectRatio="xMidYMid meet">
<metadata></metadata>
<g transform="translate(0.000000,256.000000) scale(0.100000,-0.100000)"
fill="#ffffff" stroke="none">
<path d="M805 2548 c-2 -7 -47 -285 -100 -618 -52 -333 -97 -615 -100 -627
l-5 -23 150 0 c82 0 150 -3 150 -6 0 -4 -91 -250 -201 -548 -284 -763 -271
-728 -255 -724 8 2 400 406 871 898 l857 895 -277 3 c-262 2 -276 3 -270 20 3
10 82 180 175 376 94 197 170 360 170 362 0 2 -261 4 -580 4 -456 0 -582 -3
-585 -12z m891 -166 c-4 -10 -83 -180 -176 -376 -94 -197 -170 -360 -170 -362
0 -2 96 -5 214 -6 l214 -3 -451 -472 c-248 -260 -452 -471 -454 -470 -1 2 60
169 135 372 l138 370 -174 3 -173 2 5 28 c9 44 146 908 146 921 0 8 100 11
376 11 359 0 375 -1 370 -18z"/>
</g>
</svg>
