<?xml version="1.0" encoding="UTF-8"?>
<!-- Generator: Adobe Illustrator 19.0.0, SVG Export Plug-In . SVG Version: 6.00 Build 0)  -->
<svg version="1.1" id="Layer_1" xmlns:inkscape="http://www.inkscape.org/namespaces/inkscape" xmlns:dc="http://purl.org/dc/elements/1.1/" xmlns:rdf="http://www.w3.org/1999/02/22-rdf-syntax-ns#" xmlns:svg="http://www.w3.org/2000/svg" xmlns:sodipodi="http://sodipodi.sourceforge.net/DTD/sodipodi-0.dtd" xmlns:cc="http://creativecommons.org/ns#" xmlns="http://www.w3.org/2000/svg" xmlns:xlink="http://www.w3.org/1999/xlink" x="0px" y="0px" viewBox="-408 408.4 32 34.6" style="enable-background:new -408 408.4 32 34.6;" xml:space="preserve">
<style type="text/css">
	.st0{fill:#144F84;}
</style>
<g transform="translate(0,-1020.3622)">
	<path class="st0" d="M-392,1432.1c-1.4,0-2.5,1.1-2.5,2.5c0,1.2,0.9,2.2,2,2.4v4.1c-1,0.1-1.9,0.4-2.7,1.1l-2.9-2.9   c0.6-1,0.5-2.3-0.3-3.1c-1-1-2.6-1-3.5,0c-1,1-1,2.6,0,3.5c0.9,0.9,2.2,1,3.1,0.3l2.9,2.9c-0.6,0.8-1,1.7-1.1,2.7h-4.1   c-0.2-1.1-1.2-2-2.4-2c-1.4,0-2.5,1.1-2.5,2.5s1.1,2.5,2.5,2.5c1.2,0,2.2-0.9,2.4-2h4.1c0.1,1,0.4,1.9,1.1,2.7l-2.9,2.9   c-1-0.6-2.3-0.5-3.1,0.3c-1,1-1,2.6,0,3.5c1,1,2.6,1,3.5,0c0.9-0.9,1-2.2,0.3-3.1l0,0l2.9-2.9c0.8,0.6,1.7,1,2.7,1.1v4.1l0,0   c-1.1,0.2-2,1.2-2,2.4c0,1.4,1.1,2.5,2.5,2.5s2.5-1.1,2.5-2.5c0-1.2-0.9-2.2-2-2.4v-4.1c1-0.1,1.9-0.4,2.7-1.1l2.9,2.9l0,0   c-0.6,1-0.5,2.3,0.3,3.1c1,1,2.6,1,3.5,0c1-1,1-2.6,0-3.5c-0.9-0.9-2.2-1-3.1-0.3l-2.9-2.9c0.6-0.8,1-1.7,1.1-2.7h4.1l0,0   c0.2,1.1,1.2,2,2.4,2c1.4,0,2.5-1.1,2.5-2.5s-1.1-2.5-2.5-2.5c-1.2,0-2.2,0.9-2.4,2h-4.1c-0.1-1-0.4-1.9-1.1-2.7l2.9-2.9l0,0   c1,0.6,2.3,0.5,3.1-0.3c1-1,1-2.6,0-3.5c-1-1-2.6-1-3.5,0c-0.9,0.9-1,2.2-0.3,3.1l-2.9,2.9c-0.8-0.6-1.7-1-2.7-1.1v-4.1l0,0   c1.1-0.2,2-1.2,2-2.4C-389.5,1433.2-390.6,1432.1-392,1432.1z M-392,1433.1c0.8,0,1.5,0.7,1.5,1.5s-0.7,1.5-1.5,1.5   s-1.5-0.7-1.5-1.5S-392.8,1433.1-392,1433.1z M-400.1,1436.4c0.4,0,0.8,0.1,1.1,0.4c0.6,0.6,0.6,1.5,0,2.1s-1.5,0.6-2.1,0   s-0.6-1.5,0-2.1C-400.9,1436.6-400.5,1436.4-400.1,1436.4z M-383.9,1436.4c0.4,0,0.8,0.1,1.1,0.4c0.6,0.6,0.6,1.5,0,2.1   s-1.5,0.6-2.1,0s-0.6-1.5,0-2.1C-384.6,1436.6-384.3,1436.4-383.9,1436.4z M-392,1442.1c1,0,2,0.4,2.8,1.2c1.6,1.6,1.6,4.1,0,5.7   s-4.1,1.6-5.7,0s-1.6-4.1,0-5.7C-394,1442.4-393,1442.1-392,1442.1z M-403.5,1444.6c0.8,0,1.5,0.7,1.5,1.5s-0.7,1.5-1.5,1.5   s-1.5-0.7-1.5-1.5S-404.3,1444.6-403.5,1444.6z M-380.5,1444.6c0.8,0,1.5,0.7,1.5,1.5s-0.7,1.5-1.5,1.5s-1.5-0.7-1.5-1.5   S-381.3,1444.6-380.5,1444.6z M-400.1,1452.7c0.4,0,0.8,0.1,1.1,0.4c0.6,0.6,0.6,1.5,0,2.1s-1.5,0.6-2.1,0s-0.6-1.5,0-2.1   C-400.9,1452.8-400.5,1452.7-400.1,1452.7z M-383.9,1452.7c0.4,0,0.8,0.1,1.1,0.4c0.6,0.6,0.6,1.5,0,2.1s-1.5,0.6-2.1,0   s-0.6-1.5,0-2.1C-384.6,1452.8-384.3,1452.7-383.9,1452.7z M-392,1456.1c0.8,0,1.5,0.7,1.5,1.5s-0.7,1.5-1.5,1.5s-1.5-0.7-1.5-1.5   S-392.8,1456.1-392,1456.1z"/>
</g>
</svg>