<?xml version="1.0" encoding="UTF-8"?>
<!-- Generator: Adobe Illustrator 21.0.0, SVG Export Plug-In . SVG Version: 6.00 Build 0)  -->
<svg version="1.1" id="masternoades" xmlns="http://www.w3.org/2000/svg" xmlns:xlink="http://www.w3.org/1999/xlink" x="0px" y="0px" viewBox="0 0 110 110" style="enable-background:new 0 0 110 110;" xml:space="preserve">
<style type="text/css">
	.st0{clip-path:url(#SVGID_2_);fill:url(#SVGID_3_);}
	.st1{clip-path:url(#SVGID_5_);fill:url(#SVGID_6_);}
	.st2{clip-path:url(#SVGID_8_);fill:url(#SVGID_9_);}
	.st3{clip-path:url(#SVGID_11_);fill:url(#SVGID_12_);}
	.st4{clip-path:url(#SVGID_14_);fill:url(#SVGID_15_);}
	.st5{clip-path:url(#SVGID_17_);fill:url(#SVGID_18_);}
	.st6{clip-path:url(#SVGID_20_);fill:url(#SVGID_21_);}
	.st7{clip-path:url(#SVGID_23_);fill:url(#SVGID_24_);}
	.st8{clip-path:url(#SVGID_26_);fill:url(#SVGID_27_);}
</style>
<g>
	<defs>
		<path id="SVGID_1_" d="M55,10.8c0.9,0,1.7-0.8,1.7-1.7V1.7C56.7,0.8,55.9,0,55,0c-0.9,0-1.7,0.8-1.7,1.7v7.4    C53.3,10,54.1,10.8,55,10.8z"/>
	</defs>
	<clipPath id="SVGID_2_">
		<use xlink:href="#SVGID_1_" style="overflow:visible;"/>
	</clipPath>
	<linearGradient id="SVGID_3_" gradientUnits="userSpaceOnUse" x1="0" y1="110" x2="110" y2="-5.684342e-13">
		<stop offset="0" style="stop-color:#1A9690"/>
		<stop offset="1" style="stop-color:#247CB5"/>
	</linearGradient>
	<rect class="st0" width="110" height="110"/>
</g>
<g>
	<defs>
		<path id="SVGID_4_" d="M55,99.2c-0.9,0-1.7,0.8-1.7,1.7v7.4c0,0.9,0.8,1.7,1.7,1.7c0.9,0,1.7-0.8,1.7-1.7v-7.4    C56.7,100,55.9,99.2,55,99.2z"/>
	</defs>
	<clipPath id="SVGID_5_">
		<use xlink:href="#SVGID_4_" style="overflow:visible;"/>
	</clipPath>
	<linearGradient id="SVGID_6_" gradientUnits="userSpaceOnUse" x1="0" y1="110" x2="110" y2="-5.684342e-13">
		<stop offset="0" style="stop-color:#1A9690"/>
		<stop offset="1" style="stop-color:#247CB5"/>
	</linearGradient>
	<rect class="st1" width="110" height="110"/>
</g>
<g>
	<defs>
		<path id="SVGID_7_" d="M9.9,53.3H2.7C1.7,53.3,1,54.1,1,55c0,0.9,0.8,1.7,1.7,1.7h7.3c0.9,0,1.7-0.8,1.7-1.7    C11.6,54.1,10.8,53.3,9.9,53.3z"/>
	</defs>
	<clipPath id="SVGID_8_">
		<use xlink:href="#SVGID_7_" style="overflow:visible;"/>
	</clipPath>
	<linearGradient id="SVGID_9_" gradientUnits="userSpaceOnUse" x1="0" y1="110" x2="110" y2="-5.684342e-13">
		<stop offset="0" style="stop-color:#1A9690"/>
		<stop offset="1" style="stop-color:#247CB5"/>
	</linearGradient>
	<rect class="st2" width="110" height="110"/>
</g>
<g>
	<defs>
		<path id="SVGID_10_" d="M107.3,53.3h-7.3c-0.9,0-1.7,0.8-1.7,1.7c0,0.9,0.8,1.7,1.7,1.7h7.3c0.9,0,1.7-0.8,1.7-1.7    C109,54.1,108.3,53.3,107.3,53.3z"/>
	</defs>
	<clipPath id="SVGID_11_">
		<use xlink:href="#SVGID_10_" style="overflow:visible;"/>
	</clipPath>
	<linearGradient id="SVGID_12_" gradientUnits="userSpaceOnUse" x1="0" y1="110" x2="110" y2="-5.684342e-13">
		<stop offset="0" style="stop-color:#1A9690"/>
		<stop offset="1" style="stop-color:#247CB5"/>
	</linearGradient>
	<rect class="st3" width="110" height="110"/>
</g>
<g>
	<defs>
		<path id="SVGID_13_" d="M21.9,86.3l-5.1,5.2c-0.7,0.7-0.6,1.7,0,2.4c0.3,0.3,0.8,0.5,1.2,0.5c0.4,0,0.9-0.2,1.2-0.5l5.1-5.2    c0.7-0.7,0.6-1.7,0-2.4C23.6,85.6,22.6,85.6,21.9,86.3z"/>
	</defs>
	<clipPath id="SVGID_14_">
		<use xlink:href="#SVGID_13_" style="overflow:visible;"/>
	</clipPath>
	<linearGradient id="SVGID_15_" gradientUnits="userSpaceOnUse" x1="0" y1="110" x2="110" y2="-5.684342e-13">
		<stop offset="0" style="stop-color:#1A9690"/>
		<stop offset="1" style="stop-color:#247CB5"/>
	</linearGradient>
	<rect class="st4" width="110" height="110"/>
</g>
<g>
	<defs>
		<path id="SVGID_16_" d="M86.9,24.2c0.4,0,0.9-0.2,1.2-0.5l5.1-5.2c0.7-0.7,0.6-1.7,0-2.4c-0.7-0.7-1.7-0.6-2.4,0l-5.1,5.2    c-0.7,0.7-0.6,1.7,0,2.4C86,24,86.5,24.2,86.9,24.2z"/>
	</defs>
	<clipPath id="SVGID_17_">
		<use xlink:href="#SVGID_16_" style="overflow:visible;"/>
	</clipPath>
	<linearGradient id="SVGID_18_" gradientUnits="userSpaceOnUse" x1="0" y1="110" x2="110" y2="-5.684342e-13">
		<stop offset="0" style="stop-color:#1A9690"/>
		<stop offset="1" style="stop-color:#247CB5"/>
	</linearGradient>
	<rect class="st5" width="110" height="110"/>
</g>
<g>
	<defs>
		<path id="SVGID_19_" d="M88.1,86.3c-0.7-0.7-1.7-0.7-2.4,0c-0.7,0.7-0.7,1.7,0,2.4l5.1,5.2c0.3,0.3,0.8,0.5,1.2,0.5    c0.4,0,0.9-0.2,1.2-0.5c0.7-0.7,0.7-1.7,0-2.4L88.1,86.3z"/>
	</defs>
	<clipPath id="SVGID_20_">
		<use xlink:href="#SVGID_19_" style="overflow:visible;"/>
	</clipPath>
	<linearGradient id="SVGID_21_" gradientUnits="userSpaceOnUse" x1="0" y1="110" x2="110" y2="-5.684342e-13">
		<stop offset="0" style="stop-color:#1A9690"/>
		<stop offset="1" style="stop-color:#247CB5"/>
	</linearGradient>
	<rect class="st6" width="110" height="110"/>
</g>
<g>
	<defs>
		<path id="SVGID_22_" d="M21.9,23.7c0.3,0.3,0.8,0.5,1.2,0.5c0.4,0,0.9-0.2,1.2-0.5c0.7-0.7,0.7-1.7,0-2.4l-5.1-5.2    c-0.7-0.7-1.7-0.7-2.4,0c-0.7,0.7-0.7,1.7,0,2.4L21.9,23.7z"/>
	</defs>
	<clipPath id="SVGID_23_">
		<use xlink:href="#SVGID_22_" style="overflow:visible;"/>
	</clipPath>
	<linearGradient id="SVGID_24_" gradientUnits="userSpaceOnUse" x1="0" y1="110" x2="110" y2="-5.684342e-13">
		<stop offset="0" style="stop-color:#1A9690"/>
		<stop offset="1" style="stop-color:#247CB5"/>
	</linearGradient>
	<rect class="st7" width="110" height="110"/>
</g>
<g>
	<defs>
		<path id="SVGID_25_" d="M83.5,51c1.2-1.4,1.3-3.4,0.3-4.9l-9-13.8c-0.8-1.2-2-1.9-3.4-1.9H46.6h-3.4h-4.5c-1.4,0-2.7,0.7-3.4,1.9    l-9,13.8c-1,1.5-0.9,3.5,0.3,4.9L51.8,82c0.8,1,1.9,1.5,3.2,1.5c1.2,0,2.4-0.5,3.2-1.5l14.4-17.5c0,0,0,0,0,0L83.5,51z M72.8,34.2    l8.5,13.1H66.7v0l-1.3-1.9L72.8,34.2z M70.3,33.1l-6.4,9.8l-6.4-9.8H70.3z M63.5,47.3h-3.2c0,0,0,0,0,0H46.5L55,34.2L63.5,47.3z     M46.6,33.1L46.6,33.1h5.9l-6.4,9.8l-6.4-9.8H46.6z M37.2,34.2l7.3,11.2l-1.3,1.9H28.7L37.2,34.2z M29,49.9h14.1L48,65    c0,0,0,0,0,0l4.4,13.4L29,49.9z M49.6,61.4C49.6,61.4,49.6,61.4,49.6,61.4l-3.7-11.4H59h0h5.2L55,77.9L49.6,61.4z M57.6,78.4    L67,49.9h14l-12,14.7c0,0,0,0,0,0L57.6,78.4z"/>
	</defs>
	<clipPath id="SVGID_26_">
		<use xlink:href="#SVGID_25_" style="overflow:visible;"/>
	</clipPath>
	<linearGradient id="SVGID_27_" gradientUnits="userSpaceOnUse" x1="0" y1="110" x2="110" y2="-5.684342e-13">
		<stop offset="0" style="stop-color:#1A9690"/>
		<stop offset="1" style="stop-color:#247CB5"/>
	</linearGradient>
	<rect class="st8" width="110" height="110"/>
</g>
</svg>