<svg id="Layer_1" data-name="Layer 1" xmlns="http://www.w3.org/2000/svg" viewBox="0 0 127 127"><defs><style>.cls-1{fill:#9aabd1;}.cls-2{fill:#6e83b7;}.cls-3{fill:#7e879d;}.cls-4{fill:#5a678a;}.cls-5{fill:#fff;}</style></defs><title>TopicIcons</title><path class="cls-1" d="M106.93,33.68a2,2,0,0,0-2.08-2.08h-1C88,31.6,73.47,24.54,65,12.69a2.1,2.1,0,0,0-1.45-.83,1.57,1.57,0,0,0-1.45.83C53.32,24.54,38.77,31.6,23.19,31.6h-1c-0.83-.21-1.87.83-2.08,2.08-0.21,2.08-.21,4.36-0.21,6.65,0,38,18.7,70.24,43.43,74.81h0.62c24.73-4.57,43.22-36.78,43.22-74.81,0-2.29,0-4.57-.21-6.65"/><path class="cls-2" d="M63.08,115.14h0.62c24.94-4.57,43.43-36.78,43.43-74.81,0-2.29,0-4.36-.21-6.65a2,2,0,0,0-2.08-2.08h-1a53.79,53.79,0,0,1-13.09-1.66L31.5,89.16C39.4,103.09,50.41,112.85,63.08,115.14Z"/><path class="cls-3" d="M58.72,61.94a9.88,9.88,0,0,1-1.45-4.78A9.22,9.22,0,0,1,66.41,48a7.28,7.28,0,0,1,4.78,1.45L58.72,61.94"/><path class="cls-4" d="M76.8,85.84H56.23l5.61-21a11.13,11.13,0,0,1-3.12-3.12L71.4,49.06A9.16,9.16,0,0,1,75.76,57a9.35,9.35,0,0,1-4.57,7.9l5.61,21"/><path class="cls-5" d="M73.68,82.93l-5.61-21A9.35,9.35,0,0,0,72.64,54,9.09,9.09,0,0,0,63.5,44.9,9.22,9.22,0,0,0,54.36,54a9.35,9.35,0,0,0,4.57,7.9l-5.61,21H73.68Z"/></svg>